<?xml version="1.0" standalone="no"?>
<!DOCTYPE svg PUBLIC "-//W3C//DTD SVG 20010904//EN"
 "http://www.w3.org/TR/2001/REC-SVG-20010904/DTD/svg10.dtd">
<svg version="1.0" xmlns="http://www.w3.org/2000/svg"
 width="128.000000pt" height="128.000000pt" viewBox="0 0 128.000000 128.000000"
 preserveAspectRatio="xMidYMid meet">

<g transform="translate(0.000000,128.000000) scale(0.100000,-0.100000)"
fill="#000000" stroke="none">
<path d="M468 945 c-19 -38 -20 -49 -10 -65 16 -26 16 -152 0 -168 -9 -9 26
-12 158 -11 93 0 163 3 157 6 -17 6 -17 146 -1 173 10 16 9 27 -10 65 l-22 45
-125 0 -125 0 -22 -45z m79 -67 c4 10 8 10 20 1 11 -10 19 -10 33 -2 13 9 20
9 29 0 9 -9 16 -9 31 0 14 10 20 10 23 0 3 -9 9 -9 25 0 33 19 43 -4 40 -89
l-3 -73 -132 -3 -133 -3 0 79 c0 86 10 108 43 89 15 -9 21 -9 24 1z"/>
<path d="M196 583 c9 -61 11 -65 46 -61 30 3 33 6 36 41 2 20 8 37 13 37 6 0
9 -17 7 -37 -3 -33 0 -38 20 -41 20 -3 22 0 17 25 l-6 28 21 -27 c12 -16 30
-28 41 -28 16 0 19 7 19 50 0 44 -3 50 -21 50 -16 0 -19 -4 -14 -22 l6 -23
-20 23 c-15 17 -30 22 -65 22 l-46 0 0 -41 c0 -27 -4 -38 -11 -33 -7 4 -9 21
-6 40 5 31 3 34 -18 34 -22 0 -23 -3 -19 -37z"/>
<path d="M425 569 l0 -50 70 3 70 3 0 45 0 45 -70 2 -70 2 0 -50z m55 1 c0
-16 -4 -30 -10 -30 -5 0 -10 14 -10 30 0 17 5 30 10 30 6 0 10 -13 10 -30z"/>
<path d="M592 582 c-16 -54 -15 -62 9 -62 15 0 19 5 15 15 -3 8 -1 15 4 15 6
0 10 -7 10 -15 0 -12 17 -15 96 -15 81 0 95 2 90 15 -3 8 -1 15 4 15 6 0 10
-7 10 -15 0 -12 18 -15 106 -15 101 0 105 1 99 20 -4 11 -2 20 4 20 6 0 11 -9
11 -20 0 -14 7 -20 21 -20 16 0 19 4 14 18 -4 9 -8 31 -9 47 -1 28 -4 30 -43
33 l-43 3 0 -41 c0 -49 -15 -45 -24 5 -6 32 -10 36 -34 33 -21 -2 -28 -10 -35
-40 -12 -49 -24 -48 -37 2 -9 33 -15 40 -35 40 -20 0 -26 -7 -34 -37 -9 -31
-15 -38 -35 -38 l-25 0 20 31 c10 17 19 34 19 38 0 3 -20 6 -45 6 -35 0 -45
-4 -45 -16 0 -11 6 -15 20 -11 19 5 20 4 3 -24 -23 -38 -29 -37 -40 9 -7 29
-14 38 -34 40 -22 3 -27 -3 -37 -36z m458 8 c0 -5 -4 -10 -10 -10 -5 0 -10 5
-10 10 0 6 5 10 10 10 6 0 10 -4 10 -10z"/>
</g>
</svg>
